<?xml version="1.0" encoding="UTF-8" standalone="no"?>
<!DOCTYPE svg PUBLIC "-//W3C//DTD SVG 1.1//EN" "http://www.w3.org/Graphics/SVG/1.1/DTD/svg11.dtd">
<svg width="100%" height="100%" viewBox="0 0 418 344" version="1.1" xmlns="http://www.w3.org/2000/svg" xmlns:xlink="http://www.w3.org/1999/xlink" xml:space="preserve" xmlns:serif="http://www.serif.com/" style="fill-rule:evenodd;clip-rule:evenodd;stroke-linejoin:round;stroke-miterlimit:2;">
    <path d="M311.665,138.686L311.665,334.069C311.665,338.881 307.927,342.788 303.324,342.788L28.55,342.788C23.946,342.788 20.209,338.881 20.209,334.069L20.209,299.02C24.171,302.383 83.643,227.794 83.643,227.794L147.73,163.292C150.841,163.913 165.778,169.124 169.06,169.124C171.979,169.124 182.17,165.935 184.955,165.441L226.645,214.941C224.918,220.29 220.397,231.885 220.561,237.838C221.05,255.536 230.411,264.971 248.108,262.323C262.564,260.16 271.257,258.467 272.234,233.929C272.59,224.994 264.749,219.976 261.021,212.572L311.665,138.686Z" style="fill:rgb(129,187,71);"/>
    <path d="M20.209,236.869L20.209,59.673C20.209,55.07 23.946,51.332 28.55,51.332L303.324,51.332C307.927,51.332 311.665,55.07 311.665,59.673L311.665,105.265L249.433,198.484C248.347,198.415 247.254,198.38 246.154,198.38C242.306,198.38 238.557,198.807 234.951,199.617L203.254,161.257C205.585,155.418 210.037,139.405 209.31,132.777C206.867,110.492 194.276,97.901 166.128,97.901C137.981,97.901 122.946,112.935 122.946,141.083C122.946,147.306 131.392,157.987 133.438,163.506L65.408,226.014L65.376,212.005C64.435,211.76 63.488,225.541 62.536,225.348C57.472,224.326 52.268,224.059 47.12,224.582C42.194,225.083 37.346,226.307 32.774,228.209C28.246,230.093 24.008,233.784 20.209,236.869Z" style="fill:rgb(95,140,169);"/>
    <path d="M320.633,77.832C316.399,70.369 313.981,61.742 313.981,52.555C313.981,24.218 336.988,1.212 365.325,1.212C393.662,1.212 416.669,24.218 416.669,52.555C416.669,80.893 393.662,103.899 365.325,103.899C364.645,103.899 363.968,103.886 363.293,103.859L291.315,211.678C295.043,218.761 297.154,226.826 297.154,235.38C297.154,263.528 274.301,286.38 246.154,286.38C218.006,286.38 195.154,263.528 195.154,235.38C195.154,229.683 196.09,224.203 197.817,219.085L175.183,191.365C172.398,191.837 169.536,192.083 166.617,192.083C163.335,192.083 160.125,191.772 157.014,191.178L101.233,246.805L101.308,247.061C102.974,252.852 103.626,258.903 103.206,264.916C102.852,269.981 101.739,274.987 99.905,279.721C97.013,287.184 92.341,293.921 86.388,299.268C81.261,303.873 75.209,307.426 68.681,309.637C63.111,311.523 57.222,312.421 51.344,312.309C45.187,312.192 39.064,310.959 33.349,308.664C27.161,306.177 21.482,302.463 16.711,297.804C11.945,293.15 8.098,287.567 5.463,281.448C3.037,275.812 1.654,269.744 1.382,263.615C1.12,257.723 1.872,251.792 3.626,246.16C5.525,240.059 8.588,234.336 12.596,229.36C17.933,222.735 24.918,217.478 32.774,214.209C37.346,212.307 42.194,211.083 47.12,210.582C53.235,209.96 59.43,210.454 65.376,212.005L65.408,212.014L118.78,158.79C116.734,153.271 115.617,147.306 115.617,141.083C115.617,112.935 138.469,90.083 166.617,90.083C194.765,90.083 217.617,112.935 217.617,141.083C217.617,147.751 216.334,154.122 214.003,159.961L234.951,185.617C238.557,184.807 242.306,184.38 246.154,184.38C247.254,184.38 248.347,184.415 249.433,184.484L320.633,77.832Z" style="fill:white;"/>
    <path d="M340.381,77.066C334.335,70.774 330.617,62.23 330.617,52.824C330.617,33.507 346.3,17.824 365.617,17.824C384.934,17.824 400.617,33.507 400.617,52.824C400.617,72.141 384.934,87.824 365.617,87.824C362.176,87.824 358.851,87.327 355.711,86.4L272.001,211.792C277.685,218.015 281.154,226.296 281.154,235.38C281.154,254.697 265.471,270.38 246.154,270.38C226.836,270.38 211.154,254.697 211.154,235.38C211.154,228.523 213.13,222.123 216.543,216.722L180.883,173.048C176.526,174.998 171.697,176.083 166.617,176.083C161.587,176.083 156.803,175.02 152.478,173.105L82.243,243.146C85.471,248.444 87.331,254.666 87.331,261.319C87.331,280.636 71.648,296.319 52.331,296.319C33.014,296.319 17.331,280.636 17.331,261.319C17.331,242.002 33.014,226.319 52.331,226.319C58.493,226.319 64.286,227.914 69.315,230.714L138.415,161.804C134.142,156.002 131.617,148.835 131.617,141.083C131.617,121.766 147.3,106.083 166.617,106.083C185.934,106.083 201.617,121.766 201.617,141.083C201.617,148.825 199.098,155.984 194.835,161.782L229.702,204.486C234.606,201.866 240.208,200.38 246.154,200.38C249.913,200.38 253.534,200.974 256.929,202.073L340.381,77.066ZM52.331,243.819C61.99,243.819 69.831,251.66 69.831,261.319C69.831,270.977 61.99,278.819 52.331,278.819C42.673,278.819 34.831,270.977 34.831,261.319C34.831,251.66 42.673,243.819 52.331,243.819ZM246.154,217.88C255.812,217.88 263.654,225.722 263.654,235.38C263.654,245.039 255.812,252.88 246.154,252.88C236.495,252.88 228.654,245.039 228.654,235.38C228.654,225.722 236.495,217.88 246.154,217.88ZM166.617,123.583C176.275,123.583 184.117,131.425 184.117,141.083C184.117,150.742 176.275,158.583 166.617,158.583C156.958,158.583 149.117,150.742 149.117,141.083C149.117,131.425 156.958,123.583 166.617,123.583ZM365.617,35.324C375.275,35.324 383.117,43.166 383.117,52.824C383.117,62.483 375.275,70.324 365.617,70.324C355.958,70.324 348.117,62.483 348.117,52.824C348.117,43.166 355.958,35.324 365.617,35.324Z"/>
</svg>
