<?xml version="1.0"?>
<svg xmlns="http://www.w3.org/2000/svg" id="Layer_1" viewBox="0 0 600 137.03" width="300px" height="68px">
  <path d="M11.42,98.76a1.18,1.18,0,0,1-1.17-1.17v-76a1.18,1.18,0,0,1,1.17-1.17h50a1.18,1.18,0,0,1,1.18,1.17V33.54a1.18,1.18,0,0,1-1.18,1.18H25.62V52.34H55a1.17,1.17,0,0,1,1.17,1.18V65.35A1.17,1.17,0,0,1,55,66.52H25.62V97.59a1.17,1.17,0,0,1-1.17,1.17Z" transform="translate(-10.25 -11.69)" fill="#323232"/>
  <path d="M87.41,98.76C76.39,98.76,71,93.4,71,82.39V21.6a1.17,1.17,0,0,1,1.17-1.17h13a1.18,1.18,0,0,1,1.17,1.17v60c0,2.29.58,2.84,3,2.84h21.49c2.29,0,2.85-.55,2.85-2.84v-60a1.17,1.17,0,0,1,1.17-1.17h13a1.18,1.18,0,0,1,1.17,1.17V82.39c0,11-5.36,16.37-16.37,16.37Z" transform="translate(-10.25 -11.69)" fill="#323232"/>
  <path d="M144.29,98.76a1.18,1.18,0,0,1-1.18-1.17v-76a1.18,1.18,0,0,1,1.18-1.17h13a1.17,1.17,0,0,1,1.17,1.17V84.47h33.13a1.17,1.17,0,0,1,1.17,1.18V97.59a1.17,1.17,0,0,1-1.17,1.17Z" transform="translate(-10.25 -11.69)" fill="#323232"/>
  <path d="M215,98.76c-10.86,0-16.37-5.51-16.37-16.37V36.8c0-11,5.36-16.37,16.37-16.37h24.31c11,0,16.37,5.36,16.37,16.37v11a1.17,1.17,0,0,1-1.17,1.18h-13a1.18,1.18,0,0,1-1.18-1.18V37.56c0-2.29-.55-2.84-2.84-2.84H216.9c-2.37,0-3,.55-3,2.84V81.63c0,2.29.58,2.84,3,2.84h20.52c2.29,0,2.84-.55,2.84-2.84V71.43a1.18,1.18,0,0,1,1.18-1.18h13a1.17,1.17,0,0,1,1.17,1.18v11c0,10.86-5.5,16.37-16.37,16.37Z" transform="translate(-10.25 -11.69)" fill="#323232"/>
  <path d="M311,98.76a1.18,1.18,0,0,1-1.05-.65L296.28,70.43H282.77V97.59a1.17,1.17,0,0,1-1.17,1.17h-13a1.18,1.18,0,0,1-1.17-1.17v-76a1.18,1.18,0,0,1,1.17-1.17h39c11,0,16.37,5.36,16.37,16.37V53.73c0,9.18-3.68,14.4-11.25,15.89l13.52,27.45a1.19,1.19,0,0,1-.06,1.14,1.17,1.17,0,0,1-1,.55ZM305.7,56.47c2.28,0,2.84-.58,2.84-2.95V37.45c0-2.28-.56-2.84-2.84-2.84H282.77V56.47Z" transform="translate(-10.25 -11.69)" fill="#323232"/>
  <path d="M352.48,98.76c-11,0-16.37-5.36-16.37-16.37V21.6a1.18,1.18,0,0,1,1.17-1.17h13a1.17,1.17,0,0,1,1.17,1.17v60c0,2.29.58,2.84,2.95,2.84h21.5c2.28,0,2.84-.55,2.84-2.84v-60a1.17,1.17,0,0,1,1.17-1.17h13a1.18,1.18,0,0,1,1.17,1.17V82.39c0,11-5.36,16.37-16.37,16.37Z" transform="translate(-10.25 -11.69)" fill="#323232"/>
  <path d="M469.71,98.76a1.17,1.17,0,0,1-1.17-1.17V49.45L451.79,87.64a1.19,1.19,0,0,1-1.08.7h-10a1.19,1.19,0,0,1-1.08-.7L422.9,49.45V97.59a1.17,1.17,0,0,1-1.17,1.17H409.36a1.17,1.17,0,0,1-1.17-1.17v-76a1.17,1.17,0,0,1,1.17-1.17H424a1.18,1.18,0,0,1,1.07.69l20.86,45.95L466.8,21.12a1.16,1.16,0,0,1,1.06-.69h14.66a1.17,1.17,0,0,1,1.17,1.17v76a1.17,1.17,0,0,1-1.17,1.17Z" transform="translate(-10.25 -11.69)" fill="#323232"/>
  <path d="M513.42,64.14a13.35,13.35,0,0,1,2.58-.6,20.61,20.61,0,0,1,4.63.28l14.64-14.57c-.11-.27-.2-.55-.29-.83a13.24,13.24,0,0,1,12.66-17.07c.42,0,.84,0,1.25.06l2.55.49,1.35.48a13.25,13.25,0,0,1,7.17,17l6.12,7.51h0l1.86-.21,1.84-.06,16.92-25.39v-8.6a2.18,2.18,0,0,0-2.18-2.17H511a2.17,2.17,0,0,0-2.17,2.17v44A13,13,0,0,1,513.42,64.14Z" transform="translate(-10.25 -11.69)" fill="#5f8ca9"/>
  <path d="M580.72,63.93a14.15,14.15,0,0,1,.84,2.1A13.24,13.24,0,0,1,568.89,83.1c-.41,0-.83,0-1.24-.06A13.22,13.22,0,0,1,556.34,65.7l-6.57-8.05a13.67,13.67,0,0,1-2.12.17,14,14,0,0,1-2.24-.19L529.94,73a13.23,13.23,0,0,1-12.68,17c-.41,0-.83,0-1.24-.06a13.2,13.2,0,0,1-7.23-3V95.7a2.76,2.76,0,0,0,2.75,2.76H584a2.77,2.77,0,0,0,2.76-2.76V54.88Z" transform="translate(-10.25 -11.69)" fill="#81bb47"/>
  <path d="M548.17,39a5.59,5.59,0,0,1,1.1,10.91,5.66,5.66,0,0,1-.56.13,5.3,5.3,0,0,1-1.59.08A5.58,5.58,0,0,1,546,39.24a5.75,5.75,0,0,1,2.14-.22l.35-3.66h0a9.27,9.27,0,0,0-9.74,11.91A9.43,9.43,0,0,0,540.14,50L521.5,68.57a9.13,9.13,0,0,0-3.37-1l-.35,3.66a6.21,6.21,0,0,1,.88.15,5.54,5.54,0,0,1,3.83,3.46,3.19,3.19,0,0,1,.11.33,5.58,5.58,0,1,1-10.68,3.24,5.58,5.58,0,0,1,3.72-7,5.36,5.36,0,0,1,2.14-.22l.35-3.66h0a9.26,9.26,0,1,0,8,6.53,9.07,9.07,0,0,0-.88-2l19-18.91a9.54,9.54,0,0,0,2.54.62,9.2,9.2,0,0,0,3.55-.36c.3-.1.6-.2.88-.32l9.75,12a9.26,9.26,0,1,0,16.79,2.09A9.07,9.07,0,0,0,576,63.9l22.65-34a9.43,9.43,0,0,0,1.5.27,9.26,9.26,0,0,0,1.74-18.44l-.35,3.66a5.55,5.55,0,0,1,4.82,3.94,5.58,5.58,0,0,1-3.72,7,5.71,5.71,0,0,1-1.74.24l-.4,0A5.57,5.57,0,0,1,596.34,24a5.82,5.82,0,0,1-.69-1.47,5.58,5.58,0,0,1,3.72-7,5.36,5.36,0,0,1,2.14-.22l.35-3.66h0a9.26,9.26,0,0,0-9.73,11.9,9.16,9.16,0,0,0,2.07,3.62L571.68,61a8.84,8.84,0,0,0-1.92-.39l-.34,3.66h.08a5.55,5.55,0,0,1,4.28,2.85,5.13,5.13,0,0,1,.45,1.08,5.58,5.58,0,1,1-10.68,0,5,5,0,0,1,.42-1,5.54,5.54,0,0,1,3.21-2.68l.09,0a5.41,5.41,0,0,1,2.15-.22l.34-3.66h0a9.2,9.2,0,0,0-3.55.36,8.88,8.88,0,0,0-1.46.58L555.22,49.9a9.26,9.26,0,0,0-6.7-14.54" transform="translate(-10.25 -11.69)" fill="#323232"/>
  <path d="M594.57,93h-1.72a.33.33,0,1,1,0-.66H597a.33.33,0,1,1,0,.66h-1.72v5.1a.33.33,0,0,1-.35.33.31.31,0,0,1-.33-.33Zm4-.33a.31.31,0,0,1,.33-.33h.1a.33.33,0,0,1,.31.17l2.33,3.54L604,92.53a.37.37,0,0,1,.31-.17h.08a.33.33,0,0,1,.33.33v5.43a.33.33,0,0,1-.35.33.31.31,0,0,1-.33-.33V93.71l-2,3.06a.38.38,0,0,1-.31.2.39.39,0,0,1-.34-.2l-2.05-3.06v4.41a.34.34,0,0,1-.68,0Z" transform="translate(-10.25 -11.69)" fill="#323232"/>
  <path d="M292.67,119.41v21.3h11.27v2.14H290.33V119.41Z" transform="translate(-10.25 -11.69)" fill="#323232"/>
  <path d="M310.09,138.62a2,2,0,0,0,2.28,2.28h4.56a2.06,2.06,0,0,0,2.28-2.28v-1.27h2.21v1.08c0,2.86-1.56,4.42-4.42,4.42h-4.69c-2.87,0-4.43-1.56-4.43-4.42V129.7c0-2.87,1.56-4.43,4.43-4.43H317c2.86,0,4.42,1.56,4.42,4.43v4.82H310.09Zm2.28-11.4a2.05,2.05,0,0,0-2.28,2.28v3.2h9.12v-3.2a2,2,0,0,0-2.28-2.28Z" transform="translate(-10.25 -11.69)" fill="#323232"/>
  <path d="M333.44,142.85h-2.8l-6.06-17.58h2.25l5.24,15.79,5.25-15.79h2.18Z" transform="translate(-10.25 -11.69)" fill="#323232"/>
  <path d="M345.23,138.62a2,2,0,0,0,2.28,2.28h4.56a2.06,2.06,0,0,0,2.28-2.28v-1.27h2.21v1.08c0,2.86-1.56,4.42-4.43,4.42h-4.69c-2.86,0-4.42-1.56-4.42-4.42V129.7c0-2.87,1.56-4.43,4.42-4.43h4.69c2.87,0,4.43,1.56,4.43,4.43v4.82H345.23Zm2.28-11.4a2,2,0,0,0-2.28,2.28v3.2h9.12v-3.2a2,2,0,0,0-2.28-2.28Z" transform="translate(-10.25 -11.69)" fill="#323232"/>
  <path d="M369.36,127.42a10.4,10.4,0,0,0-5.28,2v13.38h-2.21V125.27h2.21v2.54c1.57-1.3,3.26-2.54,5.28-2.54h1.56v2.15Z" transform="translate(-10.25 -11.69)" fill="#323232"/>
  <path d="M383.26,125.27c2.87,0,4.43,1.56,4.43,4.43v13.15h-2.21v-2.54a7.73,7.73,0,0,1-5.28,2.54h-1.76c-2.86,0-4.42-1.56-4.42-4.42v-1.7c0-2.86,1.56-4.43,4.42-4.43h1a40.13,40.13,0,0,1,6,.62V129.5a2,2,0,0,0-2.28-2.28h-4.1a2,2,0,0,0-2.28,2.28V130H374.6v-.29c0-2.87,1.57-4.43,4.43-4.43Zm-4.75,9a2,2,0,0,0-2.28,2.28v2.08a2,2,0,0,0,2.28,2.28h1.69a9.86,9.86,0,0,0,5.28-2.05v-4.59Z" transform="translate(-10.25 -11.69)" fill="#323232"/>
  <path d="M406.91,144.29c0,2.86-1.57,4.43-4.43,4.43h-7.62v-2h7.55a2,2,0,0,0,2.28-2.28v-4.17c-1.72,1.47-3.29,2.54-5.27,2.54h-1.89c-2.87,0-4.43-1.56-4.43-4.42V129.7c0-2.87,1.56-4.43,4.43-4.43h1.89c2,0,3.55,1.08,5.27,2.54v-2.54h2.22Zm-7.49-3.45a8.86,8.86,0,0,0,5.27-2.06v-9.44a8.84,8.84,0,0,0-5.27-2h-1.83a2,2,0,0,0-2.28,2.28v9a2.07,2.07,0,0,0,2.28,2.28Z" transform="translate(-10.25 -11.69)" fill="#323232"/>
  <path d="M414.69,138.62A2,2,0,0,0,417,140.9h4.56a2.06,2.06,0,0,0,2.28-2.28v-1.27H426v1.08c0,2.86-1.56,4.42-4.43,4.42H416.9c-2.86,0-4.43-1.56-4.43-4.42V129.7c0-2.87,1.57-4.43,4.43-4.43h4.69c2.87,0,4.43,1.56,4.43,4.43v4.82H414.69Zm2.28-11.4a2,2,0,0,0-2.28,2.28v3.2h9.12v-3.2a2,2,0,0,0-2.28-2.28Z" transform="translate(-10.25 -11.69)" fill="#323232"/>
  <path d="M445.46,142.85v-8.4l-8.11-15h2.54l6.78,12.6,6.77-12.6h2.47l-8.1,15v8.4Z" transform="translate(-10.25 -11.69)" fill="#323232"/>
  <path d="M466.4,125.27c2.87,0,4.43,1.56,4.43,4.43v8.73c0,2.86-1.56,4.42-4.43,4.42h-4.85c-2.87,0-4.43-1.56-4.43-4.42V129.7c0-2.87,1.56-4.43,4.43-4.43Zm2.21,4.3a2,2,0,0,0-2.27-2.28h-4.73a2,2,0,0,0-2.28,2.28v9a2.05,2.05,0,0,0,2.28,2.28h4.73a2,2,0,0,0,2.27-2.28Z" transform="translate(-10.25 -11.69)" fill="#323232"/>
  <path d="M489.59,142.85h-2.22v-2.54c-1.72,1.47-3.29,2.54-5.27,2.54h-1.5c-2.87,0-4.43-1.56-4.43-4.42V125.27h2.21v13.29a2.05,2.05,0,0,0,2.28,2.28h1.44a8.86,8.86,0,0,0,5.27-2.06V125.27h2.22Z" transform="translate(-10.25 -11.69)" fill="#323232"/>
  <path d="M503,127.42a10.4,10.4,0,0,0-5.28,2v13.38h-2.21V125.27h2.21v2.54c1.57-1.3,3.26-2.54,5.28-2.54h1.56v2.15Z" transform="translate(-10.25 -11.69)" fill="#323232"/>
  <path d="M529.38,119.41c3,0,4.56,1.59,4.56,4.56V138.3c0,3-1.6,4.55-4.56,4.55H518V119.41Zm-.13,21.3a2.1,2.1,0,0,0,2.34-2.35V123.9a2.09,2.09,0,0,0-2.34-2.34h-8.89v19.15Z" transform="translate(-10.25 -11.69)" fill="#323232"/>
  <path d="M548.4,125.27c2.86,0,4.42,1.56,4.42,4.43v13.15h-2.21v-2.54a7.73,7.73,0,0,1-5.28,2.54h-1.75c-2.87,0-4.43-1.56-4.43-4.42v-1.7c0-2.86,1.56-4.43,4.43-4.43h1a40.15,40.15,0,0,1,6,.62V129.5a2,2,0,0,0-2.28-2.28h-4.1A2,2,0,0,0,542,129.5V130h-2.22v-.29c0-2.87,1.57-4.43,4.43-4.43Zm-4.76,9a2,2,0,0,0-2.28,2.28v2.08a2,2,0,0,0,2.28,2.28h1.69a9.86,9.86,0,0,0,5.28-2.05v-4.59Z" transform="translate(-10.25 -11.69)" fill="#323232"/>
  <path d="M561.58,138.62a2.06,2.06,0,0,0,2.28,2.28h2.25v1.95H563.8c-2.87,0-4.43-1.56-4.43-4.42V127.16h-2.7v-1.89h2.73v-5.21h2.15v5.21h4.56v1.89h-4.53Z" transform="translate(-10.25 -11.69)" fill="#323232"/>
  <path d="M578.84,125.27c2.87,0,4.43,1.56,4.43,4.43v13.15h-2.21v-2.54a7.73,7.73,0,0,1-5.28,2.54H574c-2.86,0-4.42-1.56-4.42-4.42v-1.7c0-2.86,1.56-4.43,4.42-4.43h1a40.13,40.13,0,0,1,6,.62V129.5a2,2,0,0,0-2.28-2.28h-4.1a2,2,0,0,0-2.28,2.28V130h-2.22v-.29c0-2.87,1.56-4.43,4.43-4.43Zm-4.75,9a2,2,0,0,0-2.28,2.28v2.08a2,2,0,0,0,2.28,2.28h1.69a9.86,9.86,0,0,0,5.28-2.05v-4.59Z" transform="translate(-10.25 -11.69)" fill="#323232"/>
</svg>
