<?xml version="1.0" encoding="UTF-8" standalone="no"?>
<svg fill-rule="evenodd" stroke-linejoin="round" stroke-miterlimit="2" clip-rule="evenodd" viewBox="0 0 384 325">
  <path d="M323 59.2A34.9 34.9 0 01348.4 0a35 35 0 11-10 68.6L254.8 194a35 35 0 11-55.5 5l-35.6-43.8a34.8 34.8 0 01-28.5 0L65 225.4A35 35 0 1152 213l69.2-69a35 35 0 1156.4 0l34.9 42.8a34.8 34.8 0 0127.2-2.5l83.5-125zM35 226a17.5 17.5 0 110 35 17.5 17.5 0 010-35zm193.8-26a17.5 17.5 0 110 35 17.5 17.5 0 010-35zm-79.5-94.2a17.5 17.5 0 110 35 17.5 17.5 0 010-35zm199-88.3a17.5 17.5 0 110 35 17.5 17.5 0 010-35z"/>
  <path fill="#81bb47" d="M294.3 163.4v153.2c0 4.6-3.7 8.4-8.3 8.4H11.2a8.3 8.3 0 01-8.3-8.4v-33.5a51.1 51.1 0 0081-53.9v-.2l55.8-55.6a51.2 51.2 0 0018.2.1l22.6 27.8a50.9 50.9 0 1093.5-7.4l20.3-30.5z"/>
  <path fill="#5f8ca9" d="M2.9 203.9v-162c0-4.7 3.7-8.4 8.3-8.4H286c4.6 0 8.3 3.7 8.3 8.3v31.6l-62.2 93.3a51.7 51.7 0 00-14.5 1l-21-25.6a51 51 0 10-95.2-1.2l-53.3 53.3a51.7 51.7 0 00-45.2 9.7z"/>
</svg>